<svg width="100" height="100" viewBox="0 0 100 100" fill="none" xmlns="http://www.w3.org/2000/svg">
<rect width="100" height="100" rx="18" fill="#1E212A"/>
<path d="M61.997 71.9519C61.997 74.9362 59.5993 77.3307 56.6111 77.3307C53.6228 77.3307 51.2015 74.9362 51.2015 71.9519C51.2015 68.9676 53.6346 66.5495 56.6111 66.5495C59.6111 66.5495 61.997 68.9676 61.997 71.9519ZM32.0082 66.5495C29.02 66.5495 26.6223 68.9794 26.6223 71.9519C26.6223 74.9244 29.02 77.3307 32.0082 77.3307C34.9965 77.3307 37.4178 74.9362 37.4178 71.9519C37.4178 68.9676 34.9965 66.5495 32.0082 66.5495ZM66.4616 34.7013C30.7681 34.7013 21.6734 33.1914 12 23C16.0631 29.0983 18.2954 40.5637 56.0677 40.0093C95.4346 39.4195 71.4224 50.1654 64.4301 62.2913C86.4817 42.6279 102.155 34.7013 66.4616 34.7013Z" fill="white"/>
</svg>
